<svg xmlns="http://www.w3.org/2000/svg" viewBox="0 0 500 500" width="100%" height="100%">
  <defs>
    <linearGradient id="grad1" x1="0%" y1="0%" x2="100%" y2="100%">
      <stop offset="0%" style="stop-color:#38bdf8;stop-opacity:1" />
      <stop offset="100%" style="stop-color:#0284c7;stop-opacity:1" />
    </linearGradient>
    <linearGradient id="grad2" x1="0%" y1="100%" x2="100%" y2="0%">
      <stop offset="0%" style="stop-color:#0284c7;stop-opacity:1" />
      <stop offset="100%" style="stop-color:#10b981;stop-opacity:1" />
    </linearGradient>
  </defs>
  
  <!-- "B" with book bottom -->
  <path d="M120 150 L200 150 C250 150 280 180 280 230 C280 260 260 280 230 290 C270 300 290 330 290 370 C290 430 250 450 180 450 C160 450 140 440 120 430 Z" fill="none" stroke="url(#grad1)" stroke-width="40" stroke-linecap="round" stroke-linejoin="round" />
  
  <path d="M100 130 L100 450 C100 450 150 480 220 450" fill="none" stroke="url(#grad1)" stroke-width="25" stroke-linecap="round" stroke-linejoin="round" />
  <path d="M70 160 L70 430 C70 430 130 460 200 430" fill="none" stroke="url(#grad1)" stroke-width="15" stroke-linecap="round" stroke-linejoin="round" />

  <!-- "K" with person and star -->
  <path d="M320 230 L320 450" fill="none" stroke="url(#grad2)" stroke-width="40" stroke-linecap="round" />
  <path d="M320 350 L430 450" fill="none" stroke="url(#grad2)" stroke-width="40" stroke-linecap="round" />
  
  <!-- Reaching Arm -->
  <path d="M320 310 C380 250 400 150 420 130" fill="none" stroke="url(#grad2)" stroke-width="25" stroke-linecap="round" />
  
  <!-- Person Head -->
  <circle cx="340" cy="180" r="25" fill="url(#grad2)" />
  <circle cx="330" cy="130" r="8" fill="url(#grad2)" />
  <circle cx="360" cy="130" r="8" fill="url(#grad2)" />

  <!-- Star -->
  <polygon points="420,70 430,95 455,95 435,110 442,135 420,120 398,135 405,110 385,95 410,95" fill="#10b981" />
</svg>
